<svg xmlns="http://www.w3.org/2000/svg" aria-hidden="true" overflow="hidden" style="position:absolute;width:0;height:0">
    <defs>
        <symbol id="icon-logo" viewBox="0 0 32 32">
            <path fill="var(--color1, #475467)"
                  d="M31.857 15.926h-.849c-.004-.052-.023-.097-.055-.135s-.074-.067-.125-.087a.429.429 0 0 0-.167-.032c-.079 0-.147.014-.204.043s-.085.07-.084.124c-.001.038.015.073.048.105s.101.057.199.075l.521.094c.263.048.458.129.587.242a.579.579 0 0 1 .196.453.745.745 0 0 1-.164.476 1.04 1.04 0 0 1-.44.311 1.735 1.735 0 0 1-.633.109c-.392 0-.699-.08-.921-.241s-.344-.372-.369-.635h.916a.263.263 0 0 0 .12.189.486.486 0 0 0 .261.065.444.444 0 0 0 .209-.043c.056-.029.084-.07.085-.124-.001-.049-.026-.088-.073-.117s-.12-.052-.221-.07l-.454-.08c-.262-.046-.458-.133-.588-.261s-.195-.293-.194-.495a.721.721 0 0 1 .14-.453.881.881 0 0 1 .409-.284c.178-.066.389-.099.633-.099.371 0 .664.077.877.231a.784.784 0 0 1 .339.638zM27.392 17.049l.007-1.096h.12l.622-.862h1.036l-1.043 1.344h-.261l-.481.615zm-.829.609v-3.422h.923v3.422h-.923zm1.584 0-.588-1.016.602-.655 1.043 1.671h-1.056zM24.852 17.705a1.45 1.45 0 0 1-.715-.165 1.135 1.135 0 0 1-.456-.465c-.106-.199-.159-.431-.159-.694s.053-.494.159-.692c.106-.199.258-.354.456-.465.198-.111.437-.167.715-.167.252 0 .47.046.653.137.185.09.328.218.429.384.101.165.153.359.154.582h-.856a.498.498 0 0 0-.117-.307.324.324 0 0 0-.251-.107.333.333 0 0 0-.211.07.436.436 0 0 0-.14.209c-.033.092-.05.209-.05.349s.017.257.05.351c.033.092.08.162.14.209.06.046.13.069.211.069a.345.345 0 0 0 .18-.047.353.353 0 0 0 .127-.14.545.545 0 0 0 .06-.227h.856a1.172 1.172 0 0 1-.156.592c-.1.167-.242.296-.426.388s-.401.137-.655.137zM22.129 16.535v-1.444h.922v2.567h-.876v-.488h-.027a.728.728 0 0 1-.292.384.887.887 0 0 1-.496.137.88.88 0 0 1-.471-.124.846.846 0 0 1-.313-.341 1.093 1.093 0 0 1-.112-.498V15.09h.922v1.444a.44.44 0 0 0 .097.299.347.347 0 0 0 .271.109.394.394 0 0 0 .199-.048c.057-.033.1-.08.13-.14a.466.466 0 0 0 .045-.219zM18.33 17.658v-2.567h.896v.488h.027c.047-.18.121-.313.222-.396a.547.547 0 0 1 .359-.125.806.806 0 0 1 .234.035v.787c-.046-.016-.102-.027-.169-.035s-.124-.012-.172-.012a.486.486 0 0 0-.244.062.438.438 0 0 0-.169.17.51.51 0 0 0-.062.256v1.337h-.922zM15.165 14.984v-.749h2.975v.749h-1.029v2.674h-.916v-2.674h-1.029z"/>
            <path fill="var(--color2, #101828)"
                  d="M14.708 14.235v3.422h-.922v-3.422h.922zM12.058 17.705c-.274 0-.51-.052-.709-.157a1.099 1.099 0 0 1-.456-.455 1.491 1.491 0 0 1-.159-.712c0-.265.053-.497.16-.695s.258-.353.453-.463c.195-.11.425-.165.69-.165.194 0 .369.03.526.09a1.116 1.116 0 0 1 .66.676c.06.162.09.346.09.55v.214H11.02v-.508h1.444a.351.351 0 0 0-.057-.194.362.362 0 0 0-.145-.132.432.432 0 0 0-.206-.048.446.446 0 0 0-.206.048.387.387 0 0 0-.15.13.374.374 0 0 0-.059.196v.548c0 .082.017.156.052.221s.084.115.149.152a.466.466 0 0 0 .234.055.538.538 0 0 0 .174-.027.39.39 0 0 0 .137-.077.318.318 0 0 0 .084-.124h.842a.956.956 0 0 1-.206.465c-.108.13-.251.232-.429.304a1.663 1.663 0 0 1-.622.107zM10.55 15.091l-.862 2.567h-1.07l-.862-2.567h.969l.414 1.698h.027l.414-1.698h.969zM5.896 17.698c-.164 0-.309-.027-.434-.08-.125-.055-.223-.137-.294-.247s-.107-.251-.107-.421c0-.14.024-.26.072-.359.048-.1.115-.182.201-.246s.185-.112.299-.145a1.84 1.84 0 0 1 .371-.065c.144-.011.259-.024.346-.04a.486.486 0 0 0 .191-.069.144.144 0 0 0 .059-.119V15.9c0-.067-.026-.118-.077-.154s-.117-.053-.197-.053a.37.37 0 0 0-.216.059.244.244 0 0 0-.099.175h-.849a.872.872 0 0 1 .538-.749c.17-.08.383-.12.638-.12.184 0 .349.022.495.065.146.042.27.102.373.179.103.076.18.165.234.267a.682.682 0 0 1 .082.331v1.758H6.66v-.361h-.02a.74.74 0 0 1-.187.232.687.687 0 0 1-.249.129c-.092.027-.194.04-.306.04zm.3-.582c.07 0 .136-.015.197-.043.062-.029.113-.071.152-.125s.059-.121.059-.199v-.214a1.321 1.321 0 0 1-.263.075 1.526 1.526 0 0 1-.105.018.53.53 0 0 0-.175.055.234.234 0 0 0-.132.212c0 .071.025.126.075.164s.114.057.192.057zM3.165 17.658v-2.567h.896v.488h.027c.047-.18.121-.313.222-.396a.55.55 0 0 1 .359-.125.806.806 0 0 1 .234.035v.787c-.046-.016-.102-.027-.169-.035s-.124-.012-.172-.012a.486.486 0 0 0-.244.062.438.438 0 0 0-.169.17.51.51 0 0 0-.062.256v1.337h-.922zM0 14.984v-.749h2.975v.749H1.946v2.674H1.03v-2.674H.001z"/>
        </symbol>
        <symbol id="icon-star" viewBox="0 0 32 32">
            <path fill="var(--color3, #f2f4f7)"
                  d="M15.116 2.676a1 1 0 0 1 1.769 0l3.777 7.158c.145.274.408.466.714.519l7.975 1.38a1 1 0 0 1 .547 1.682l-5.641 5.804a1 1 0 0 0-.273.839l1.152 8.01a1 1 0 0 1-1.431 1.04l-7.263-3.571a.998.998 0 0 0-.882 0l-7.262 3.571a1 1 0 0 1-1.431-1.04l1.152-8.01a1 1 0 0 0-.273-.839l-5.64-5.804a1 1 0 0 1 .547-1.682l7.974-1.38a.998.998 0 0 0 .714-.519l3.776-7.158z"/>
        </symbol>
        <symbol id="icon-star-p" viewBox="0 0 32 32">
            <path fill="var(--color3, #f2f4f7)"
                  d="M15.116 1.676a1 1 0 0 1 1.769 0l3.777 7.158c.145.274.408.466.714.519l7.975 1.38a1 1 0 0 1 .547 1.682l-5.641 5.804a1 1 0 0 0-.273.839l1.152 8.01a1 1 0 0 1-1.431 1.04l-7.263-3.571a.998.998 0 0 0-.882 0l-7.262 3.571a1 1 0 0 1-1.431-1.04l1.152-8.01a1 1 0 0 0-.273-.839l-5.64-5.804a1 1 0 0 1 .547-1.682l7.974-1.38a.998.998 0 0 0 .714-.519l3.776-7.158z"/>
        </symbol>
        <symbol id="icon-favorit" viewBox="0 0 32 32">
            <path d="m16 13.139-1.788-3.578c-.444-.886-1.214-2.16-2.304-3.19C10.836 5.357 9.552 4.667 8 4.667c-3.352 0-6 2.652-6 5.84 0 2.422 1.108 4.132 3.736 6.74.674.668 1.442 1.39 2.292 2.186C10.244 21.513 13 24.101 16 27.561c3-3.46 5.756-6.048 7.972-8.128.85-.796 1.62-1.52 2.292-2.186C28.892 14.639 30 12.929 30 10.507c0-3.188-2.648-5.84-6-5.84-1.554 0-2.836.69-3.908 1.704-1.09 1.03-1.86 2.304-2.304 3.19L16 13.139zm.784 16.584a1.022 1.022 0 0 1-1.216.269 1.04 1.04 0 0 1-.352-.269c-3.202-3.804-6.1-6.524-8.486-8.762C2.6 17.083 0 14.645 0 10.507c0-4.33 3.58-7.84 8-7.84 3.2 0 5.438 2.1 6.808 4.016.52.73.916 1.432 1.192 1.984.346-.691.745-1.354 1.192-1.984C18.562 4.765 20.8 2.667 24 2.667c4.42 0 8 3.51 8 7.84 0 4.138-2.6 6.576-6.73 10.454-2.386 2.24-5.284 4.962-8.486 8.762z"/>
        </symbol>
        <symbol id="icon-radio" viewBox="0 0 32 32">
            <path d="M14 5a.997.997 0 0 1 1-1h14a.997.997 0 0 1 1 1v2a.997.997 0 0 1-1 1H15a.997.997 0 0 1-1-1V5zM0 24a5.996 5.996 0 0 1 6-6 6.002 6.002 0 0 1 4.243 10.243A6 6 0 0 1 0 24zm14-3a.997.997 0 0 1 1-1h14a.997.997 0 0 1 1 1v2a.997.997 0 0 1-1 1H15a.997.997 0 0 1-1-1v-2zm0-10a.997.997 0 0 1 1-1h10a.997.997 0 0 1 1 1 .997.997 0 0 1-1 1H15a.997.997 0 0 1-1-1zm0 16a.997.997 0 0 1 1-1h10a.997.997 0 0 1 1 1 .997.997 0 0 1-1 1H15a.997.997 0 0 1-1-1zM6 2a5.99 5.99 0 0 0-4.243 1.758A6.01 6.01 0 0 0-.001 8.001a5.99 5.99 0 0 0 1.758 4.243A6.01 6.01 0 0 0 6 14.002a5.996 5.996 0 0 0 6-6 5.996 5.996 0 0 0-6-6zm0 9a3.004 3.004 0 0 1-3-3 3.004 3.004 0 0 1 3-3 3.004 3.004 0 0 1 3 3 3.004 3.004 0 0 1-3 3z"/>
        </symbol>
        <symbol id="icon-water" viewBox="0 0 32 32">
            <path stroke-miterlimit="10" stroke-width="2"
                  d="M25 20c0 5.523-3.477 9-9 9s-9-3.477-9-9c0-5.927 6.452-13.928 8.431-16.242a.763.763 0 0 1 .57-.263.744.744 0 0 1 .57.263c1.978 2.314 8.43 10.316 8.43 16.242z"/>
            <path stroke-linecap="round" stroke-linejoin="round" stroke-width="2"
                  d="M21.5 20.5A4.499 4.499 0 0 1 17 25"/>
        </symbol>
        <symbol id="icon-gas" viewBox="0 0 32 32">
            <path stroke-linecap="round" stroke-linejoin="round" stroke-width="2.4"
                  d="M8 25.333h5.333M24 25.345v-.012M2.667 8c0-4.413.92-5.333 5.333-5.333h16c4.413 0 5.333.92 5.333 5.333v16c0 4.413-.92 5.333-5.333 5.333H8c-4.413 0-5.333-.92-5.333-5.333V8z"/>
            <path stroke-linecap="round" stroke-linejoin="round" stroke-width="2.4"
                  d="M16 18.667A5.333 5.333 0 1 0 16 8a5.333 5.333 0 0 0 0 10.667zM20.667 13.333h2M16 18v2m-4.667-6.667h-2M16 8.667v-2"/>
        </symbol>
        <symbol id="icon-microwave" viewBox="0 0 32 32">
            <path stroke-linecap="round" stroke-linejoin="round" stroke-width="2"
                  d="M26.667 5.333H5.334A2.667 2.667 0 0 0 2.667 8v14.667a2.667 2.667 0 0 0 2.667 2.667h21.333a2.667 2.667 0 0 0 2.667-2.667V8a2.667 2.667 0 0 0-2.667-2.667z"/>
            <path stroke-linecap="round" stroke-linejoin="round" stroke-width="2"
                  d="M17.333 10.667h-8C8.597 10.667 8 11.264 8 12v6.667C8 19.403 8.597 20 9.333 20h8c.736 0 1.333-.597 1.333-1.333V12c0-.736-.597-1.333-1.333-1.333zM24 10.667V20M8 25.333V28m16-2.667V28"/>
        </symbol>
        <symbol id="icon-fridge" viewBox="0 0 32 32">
            <path d="M23.667 9.333a.997.997 0 0 0-1-1 .997.997 0 0 0-1 1V12a.997.997 0 0 0 1 1 .997.997 0 0 0 1-1V9.333zm0 9.334a.997.997 0 0 0-1-1 .997.997 0 0 0-1 1v2.667a.997.997 0 0 0 1 1 .997.997 0 0 0 1-1v-2.667z"/>
            <path d="M16.075 1.667h-.149c-2.451 0-4.392 0-5.911.204-1.563.211-2.828.653-3.827 1.651-.997.999-1.44 2.264-1.651 3.827-.204 1.52-.204 3.46-.204 5.911v4.149c0 2.451 0 4.392.204 5.911.211 1.563.653 2.828 1.651 3.827.613.612 1.325 1.015 2.145 1.284v.904a1 1 0 0 0 1 1h1.333a.997.997 0 0 0 1-1v-.395c1.209.061 2.62.061 4.259.061h.149c1.64 0 3.049 0 4.259-.061v.395a1 1 0 0 0 1 1h1.333a.997.997 0 0 0 1-1v-.904c.82-.269 1.533-.672 2.145-1.284.997-.999 1.44-2.264 1.651-3.827.204-1.52.204-3.46.204-5.911v-4.148c0-2.451 0-4.392-.204-5.911-.211-1.563-.653-2.828-1.651-3.827-.999-.997-2.264-1.44-3.827-1.651-1.52-.204-3.46-.204-5.911-.204zM7.603 4.936c.564-.564 1.337-.903 2.679-1.083 1.371-.184 3.176-.187 5.719-.187s4.349.003 5.72.187c1.34.18 2.113.519 2.677 1.083s.903 1.337 1.083 2.679c.184 1.371.187 3.176.187 5.719v1H6.335v-1c0-2.543.003-4.348.187-5.72.18-1.34.519-2.113 1.083-2.677zm-1.27 11.397h19.333v1c0 2.543-.003 4.349-.187 5.72-.18 1.34-.519 2.113-1.083 2.677s-1.337.903-2.679 1.083c-1.371.184-3.176.187-5.719.187s-4.348-.003-5.72-.187c-1.34-.18-2.113-.519-2.677-1.083s-.903-1.337-1.083-2.679c-.184-1.369-.187-3.176-.187-5.719v-1z"/>
        </symbol>
        <symbol id="icon-type-alcove" viewBox="0 0 32 32">
            <path d="M8 4v4H4V4h4zm2 24v-4a2 2 0 0 0-2-2H4a2 2 0 0 0-2 2v4a2 2 0 0 0 2 2h4a2 2 0 0 0 2-2zm0-10v-4a2 2 0 0 0-2-2H4a2 2 0 0 0-2 2v4a2 2 0 0 0 2 2h4a2 2 0 0 0 2-2zm0-10V4a2 2 0 0 0-2-2H4a2 2 0 0 0-2 2v4a2 2 0 0 0 2 2h4a2 2 0 0 0 2-2zm10 20v-4a2 2 0 0 0-2-2h-4a2 2 0 0 0-2 2v4a2 2 0 0 0 2 2h4a2 2 0 0 0 2-2zm0-10v-4a2 2 0 0 0-2-2h-4a2 2 0 0 0-2 2v4a2 2 0 0 0 2 2h4a2 2 0 0 0 2-2zm0-10V4a2 2 0 0 0-2-2h-4a2 2 0 0 0-2 2v4a2 2 0 0 0 2 2h4a2 2 0 0 0 2-2zm-2-4v4h-4V4h4zm10 0v4h-4V4h4zM8 14v4H4v-4h4zm10 0v4h-4v-4h4zm10 0h-4v4h4v-4zM8 24v4H4v-4h4zm10 0v4h-4v-4h4zm10 0v4h-4v-4h4zM24 2a2 2 0 0 0-2 2v4a2 2 0 0 0 2 2h4a2 2 0 0 0 2-2V4a2 2 0 0 0-2-2h-4zm-2 12a2 2 0 0 1 2-2h4a2 2 0 0 1 2 2v4a2 2 0 0 1-2 2h-4a2 2 0 0 1-2-2v-4zm2 8a2 2 0 0 0-2 2v4a2 2 0 0 0 2 2h4a2 2 0 0 0 2-2v-4a2 2 0 0 0-2-2h-4z"/>
        </symbol>
        <symbol id="icon-type-fully" viewBox="0 0 32 32">
            <path d="M2 5a3.004 3.004 0 0 1 3-3h6a3.004 3.004 0 0 1 3 3v6a3.004 3.004 0 0 1-3 3H5a3.004 3.004 0 0 1-3-3V5zm3-1a.997.997 0 0 0-1 1v6a.997.997 0 0 0 1 1h6a.997.997 0 0 0 1-1V5a.997.997 0 0 0-1-1H5zm13 1a3.004 3.004 0 0 1 3-3h6a3.004 3.004 0 0 1 3 3v6a3.004 3.004 0 0 1-3 3h-6a3.004 3.004 0 0 1-3-3V5zm3-1a.997.997 0 0 0-1 1v6a.997.997 0 0 0 1 1h6a.997.997 0 0 0 1-1V5a.997.997 0 0 0-1-1h-6zM2 21a3.004 3.004 0 0 1 3-3h6a3.004 3.004 0 0 1 3 3v6a3.004 3.004 0 0 1-3 3H5a3.004 3.004 0 0 1-3-3v-6zm3-1a.997.997 0 0 0-1 1v6a.997.997 0 0 0 1 1h6a.997.997 0 0 0 1-1v-6a.997.997 0 0 0-1-1H5zm13 1a3.004 3.004 0 0 1 3-3h6a3.004 3.004 0 0 1 3 3v6a3.004 3.004 0 0 1-3 3h-6a3.004 3.004 0 0 1-3-3v-6zm3-1a.997.997 0 0 0-1 1v6a.997.997 0 0 0 1 1h6a.997.997 0 0 0 1-1v-6a.997.997 0 0 0-1-1h-6z"/>
        </symbol>
        <symbol id="icon-type-van" viewBox="0 0 32 32">
            <path d="M12 2H2v28h10V2zm18 0H20v10h10V2zm0 18v10H20V20h10zM0 2a2 2 0 0 1 2-2h10a2 2 0 0 1 2 2v28a2 2 0 0 1-2 2H2a2 2 0 0 1-2-2V2zm18 0a2 2 0 0 1 2-2h10a2 2 0 0 1 2 2v10a2 2 0 0 1-2 2H20a2 2 0 0 1-2-2V2zm2 16a2 2 0 0 0-2 2v10a2 2 0 0 0 2 2h10a2 2 0 0 0 2-2V20a2 2 0 0 0-2-2H20z"/>
        </symbol>
        <symbol id="icon-bathroom" viewBox="0 0 32 32">
            <path d="M8 29.5a1.495 1.495 0 0 1-.926 1.385 1.504 1.504 0 0 1-1.635-.325 1.497 1.497 0 0 1-.326-1.635 1.5 1.5 0 0 1 2.885.574zm2.5-5.5a1.495 1.495 0 0 0-1.385.926 1.496 1.496 0 0 0 .326 1.635c.21.21.477.353.768.41s.592.028.867-.085a1.496 1.496 0 0 0 .926-1.385 1.503 1.503 0 0 0-1.5-1.5zm-8 0a1.495 1.495 0 0 0-1.385.926 1.496 1.496 0 0 0 .326 1.635c.21.21.477.353.768.41s.593.028.867-.085a1.5 1.5 0 0 0-.574-2.885zm4-4a1.495 1.495 0 0 0-1.385.926 1.496 1.496 0 0 0 .326 1.635c.21.21.477.353.768.41s.593.028.867-.085a1.5 1.5 0 0 0-.574-2.885zM32 5a.997.997 0 0 1-1 1h-3.586l-3.481 3.482-2.707 15.849a1.995 1.995 0 0 1-1.363 1.573 2.002 2.002 0 0 1-2.023-.49L5.59 14.164a2.002 2.002 0 0 1 1.086-3.389l15.842-2.709 3.775-3.775a1.007 1.007 0 0 1 .708-.293h4a.997.997 0 0 1 1 1zm-10.224 5.224L7 12.75 19.25 25l2.526-14.776z"/>
        </symbol>
        <symbol id="icon-kitchen" viewBox="0 0 32 32">
            <path d="M1 12a1.007 1.007 0 0 0-.779.374.997.997 0 0 0-.197.842l3.304 14.868A4.998 4.998 0 0 0 8.208 32h11.584a4.996 4.996 0 0 0 4.88-3.916l.262-1.18a6 6 0 0 0 2.601-11.708l.442-1.98A1.003 1.003 0 0 0 27.001 12h-26zm25 13a4.05 4.05 0 0 1-.632-.05l1.734-7.796A4.002 4.002 0 0 1 26 25zM5.28 27.65 2.246 14h23.508L22.72 27.65A2.995 2.995 0 0 1 19.792 30H8.208a2.998 2.998 0 0 1-2.928-2.35zM8.8 1.6l-.006.008-.028.038c-.146.2-.282.407-.408.62a4.003 4.003 0 0 0-.282.534c-.052.12-.068.184-.074.206v.008c.023.177.085.346.182.496.15.266.356.544.616.89l.02.024c.236.316.52.694.74 1.086.224.4.44.91.44 1.49 0 .376-.13.736-.238.988a6.142 6.142 0 0 1-.404.776 10.2 10.2 0 0 1-.506.764l-.036.05-.01.016-.004.004a1.004 1.004 0 0 1-1.4.202A1 1 0 0 1 7.2 8.4l.006-.008.028-.038c.146-.2.282-.407.408-.62.107-.171.202-.349.282-.534.052-.12.068-.184.074-.206a1.199 1.199 0 0 0-.18-.504A8.024 8.024 0 0 0 7.2 5.6l-.02-.024c-.27-.345-.517-.708-.74-1.086A3.066 3.066 0 0 1 6 3c0-.376.13-.736.238-.988.118-.276.268-.548.404-.776.159-.261.328-.516.506-.764l.05-.07A1.004 1.004 0 0 1 8.598.2 1.004 1.004 0 0 1 8.8 1.6zm6 0-.006.008-.028.038c-.146.2-.282.407-.408.62a4.003 4.003 0 0 0-.282.534c-.052.12-.068.184-.074.206v.008c.023.177.085.346.182.496.15.266.356.544.616.89l.02.024c.236.316.52.694.74 1.086.224.4.44.91.44 1.49 0 .376-.13.736-.238.988a6.142 6.142 0 0 1-.404.776 10.2 10.2 0 0 1-.506.764l-.036.05-.01.016-.004.004a1.004 1.004 0 0 1-1.4.202 1 1 0 0 1-.202-1.4l.006-.008.028-.038c.146-.2.282-.407.408-.62.107-.171.202-.349.282-.534.052-.12.068-.184.074-.206a1.199 1.199 0 0 0-.18-.504 8.024 8.024 0 0 0-.618-.89l-.02-.024c-.27-.345-.517-.708-.74-1.086A3.066 3.066 0 0 1 12 3c0-.376.13-.736.238-.988.118-.276.268-.548.404-.776.159-.261.328-.516.506-.764l.05-.07a1.004 1.004 0 0 1 1.4-.202 1 1 0 0 1 .202 1.4zm6 0-.006.008-.028.038c-.145.2-.282.407-.408.62a4.003 4.003 0 0 0-.282.534c-.052.12-.068.184-.074.206v.008c.023.177.085.346.182.496.15.266.356.544.616.89l.02.024c.236.316.52.694.74 1.086.224.4.44.91.44 1.49 0 .376-.13.736-.238.988a6.142 6.142 0 0 1-.404.776 9.875 9.875 0 0 1-.504.764l-.038.05-.01.016-.004.004a1.004 1.004 0 0 1-1.4.202 1 1 0 0 1-.202-1.4l.006-.008.028-.038c.145-.2.282-.407.408-.62.107-.171.202-.349.282-.534.052-.12.068-.184.074-.206a1.199 1.199 0 0 0-.18-.504 8.024 8.024 0 0 0-.618-.89l-.02-.024c-.27-.345-.517-.708-.74-1.086A3.066 3.066 0 0 1 18 3c0-.376.13-.736.238-.988.118-.276.268-.548.404-.776.159-.261.328-.516.506-.764l.05-.07a1.004 1.004 0 0 1 1.4-.202 1 1 0 0 1 .202 1.4z"/>
        </symbol>
        <symbol id="icon-transmission" viewBox="0 0 32 32">
            <path d="M12 7a3.004 3.004 0 0 1 3-3h2a3.004 3.004 0 0 1 3 3v2a3.004 3.004 0 0 1-3 3v2h11a.997.997 0 0 1 1 1v2a.997.997 0 0 1-1 1 .997.997 0 0 1-1-1v-1H17v1a.997.997 0 0 1-1 1 .997.997 0 0 1-1-1v-1H5v1a.997.997 0 0 1-1 1 .997.997 0 0 1-1-1v-2a.997.997 0 0 1 1-1h11v-2a3.004 3.004 0 0 1-3-3V7zm5 3a.997.997 0 0 0 1-1V7a.997.997 0 0 0-1-1h-2a.997.997 0 0 0-1 1v2a.997.997 0 0 0 1 1h2zM0 23a3.004 3.004 0 0 1 3-3h2a3.004 3.004 0 0 1 3 3v2a3.004 3.004 0 0 1-3 3H3a3.004 3.004 0 0 1-3-3v-2zm3-1a.997.997 0 0 0-1 1v2a.997.997 0 0 0 1 1h2a.997.997 0 0 0 1-1v-2a.997.997 0 0 0-1-1H3zm9 1a3.004 3.004 0 0 1 3-3h2a3.004 3.004 0 0 1 3 3v2a3.004 3.004 0 0 1-3 3h-2a3.004 3.004 0 0 1-3-3v-2zm3-1a.997.997 0 0 0-1 1v2a.997.997 0 0 0 1 1h2a.997.997 0 0 0 1-1v-2a.997.997 0 0 0-1-1h-2zm9 1a3.004 3.004 0 0 1 3-3h2a3.004 3.004 0 0 1 3 3v2a3.004 3.004 0 0 1-3 3h-2a3.004 3.004 0 0 1-3-3v-2zm3-1a.997.997 0 0 0-1 1v2a.997.997 0 0 0 1 1h2a.997.997 0 0 0 1-1v-2a.997.997 0 0 0-1-1h-2z"/>
        </symbol>
        <symbol id="icon-wind" viewBox="0 0 32 32">
            <path d="M25 4a5 5 0 0 0-5 5 .997.997 0 0 1-1 1 .997.997 0 0 1-1-1 6.994 6.994 0 0 1 4.322-6.467 6.998 6.998 0 0 1 9.544 5.102 7.006 7.006 0 0 1-2.976 7.186 6.994 6.994 0 0 1-3.889 1.18h-24a.997.997 0 0 1-1-1 .997.997 0 0 1 1-1h24a5 5 0 0 0 0-10zM11 6a2 2 0 0 0-2 2 .997.997 0 0 1-1 1 .997.997 0 0 1-1-1 4.004 4.004 0 0 1 2.469-3.695A4 4 0 1 1 11 12H1a.997.997 0 0 1-1-1 .997.997 0 0 1 1-1h10a2 2 0 0 0 0-4zM0 19a.997.997 0 0 1 1-1h20.084a5.998 5.998 0 0 1 4.242 10.243 5.996 5.996 0 0 1-6.539 1.301 5.999 5.999 0 0 1-3.704-5.543.997.997 0 0 1 1-1 .997.997 0 0 1 1 1 4.004 4.004 0 0 0 2.469 3.695 4 4 0 1 0 1.531-7.695H.999a.997.997 0 0 1-1-1z"/>
        </symbol>
        <symbol id="icon-tv" viewBox="0 0 32 32">
            <path d="M0 8s0-4 4-4h24s4 0 4 4v12s0 4-4 4h-8c0 1.333.167 2.333.5 3H22a.997.997 0 0 1 1 1 .997.997 0 0 1-1 1H10a.997.997 0 0 1-1-1 .997.997 0 0 1 1-1h1.5c.333-.667.5-1.667.5-3H4s-4 0-4-4V8zm2.796-1.71c-.22.153-.395.361-.508.604A3.013 3.013 0 0 0 2 8.02V20c0 .65.156 1.004.29 1.204.14.208.341.377.604.508.338.162.703.259 1.076.286l.05.002H28c.65 0 1.004-.156 1.204-.29.22-.153.395-.361.508-.604.162-.338.259-.703.286-1.076l.002-.05V8c0-.65-.156-1.004-.29-1.204a1.511 1.511 0 0 0-.604-.508A3.018 3.018 0 0 0 27.98 6H4c-.65 0-1.004.156-1.204.29z"/>
        </symbol>
        <symbol id="icon-map" viewBox="0 0 32 32">
            <path d="M31.634.226A.991.991 0 0 1 32 1v28a.999.999 0 0 1-.804.98l-10 2a.995.995 0 0 1-.392 0L11 30.02l-9.804 1.96a.995.995 0 0 1-1.1-.552A1.003 1.003 0 0 1 0 31V3a.999.999 0 0 1 .804-.98l10-2a.995.995 0 0 1 .392 0L21 1.98 30.804.02a.996.996 0 0 1 .83.206zM20 3.82l-8-1.6v25.96l8 1.6V3.82zm2 25.96 8-1.6V2.22l-8 1.6v25.96zm-12-1.6V2.22l-8 1.6v25.96l8-1.6z"/>
        </symbol>
    </defs>
</svg>